#N canvas 549 212 663 540 10;
#X obj -100 41 adc~;
#X obj 328 11 pddp/dsp;
#X obj 174 79 s drone-pitch;
#X obj -113 270 pitchshift~;
#X floatatom -15 246 5 0 0 0 - - -;
#X obj 174 38 init 67;
#X floatatom 174 59 3 0 0 0 - - -;
#X msg 170 126 250;
#X msg 201 126 500;
#X msg 234 126 1000;
#X msg 271 126 1500;
#X msg 307 126 2000;
#X floatatom 170 156 5 0 5000 0 - - -;
#X obj 234 104 loadbang;
#X obj -103 112 delread~ drone;
#X obj -103 90 r drone-delay;
#X floatatom -82 246 5 0 0 0 - - -;
#X obj -110 315 output~;
#X obj -15 226 init 250;
#X obj 112 15 notein;
#X obj 112 38 stripnote;
#X obj -101 64 delwrite~ drone 5000;
#X obj 198 58 comment 0 10 helvetica ? 0 0 0 0 MIDI note number for
drone;
#X obj 207 156 comment 0 10 helvetica ? 0 0 0 0 delay for drone (ms)
;
#X obj 170 200 s drone-delay;
#X obj 170 178 min 5000;
#X obj 23 246 comment 0 10 helvetica ? 0 0 0 0 window size for pitch
shift (ms);
#X msg 171 287 250;
#X msg 202 287 500;
#X msg 235 287 1000;
#X msg 272 287 1500;
#X msg 308 287 2000;
#X floatatom 171 317 5 0 5000 0 - - -;
#X obj 235 266 loadbang;
#X obj 208 317 comment 0 10 helvetica ? 0 0 0 0 length of drone beat
(ms);
#X obj 171 339 min 5000;
#X msg 139 287 0;
#X obj -183 91 output~;
#X obj -177 23 tgl 15 0 empty empty empty 17 7 0 10 -262144 -1 -1 0
1;
#X obj -181 66 spigot~;
#X obj -179 4 comment 0 10 helvetica ? 0 0 0 0 pass unmodified audio
through;
#N canvas 59 429 286 280 get-transposition 0;
#X obj -31 77 fiddle~;
#X floatatom 138 102 5 0 0 0 pitch #0.pitch -;
#X obj -31 110 * -1;
#X obj -31 141 +;
#X obj -31 54 inlet~;
#X obj -31 167 outlet;
#X obj 44 53 inlet;
#X obj 11 100 s \$0.pitch;
#X connect 0 0 2 0;
#X connect 0 0 7 0;
#X connect 2 0 3 0;
#X connect 3 0 5 0;
#X connect 4 0 0 0;
#X connect 6 0 3 1;
#X coords 0 -1 1 1 75 40 1 100 80;
#X restore -82 180 pd get-transposition;
#X obj 26 128 r drone-pitch;
#X obj 171 361 s drone-beat;
#X obj -182 137 init auto 0;
#X obj -54 133 r drone-beat;
#X obj -81 157 metro;
#X obj -98 134 loadbang;
#X connect 0 0 21 0;
#X connect 0 0 39 0;
#X connect 3 0 17 0;
#X connect 3 0 17 1;
#X connect 4 0 3 2;
#X connect 5 0 6 0;
#X connect 6 0 2 0;
#X connect 7 0 12 0;
#X connect 8 0 12 0;
#X connect 9 0 12 0;
#X connect 10 0 12 0;
#X connect 11 0 12 0;
#X connect 12 0 25 0;
#X connect 13 0 9 0;
#X connect 14 0 3 0;
#X connect 14 0 41 0;
#X connect 15 0 14 0;
#X connect 16 0 3 1;
#X connect 18 0 4 0;
#X connect 19 0 20 0;
#X connect 20 0 6 0;
#X connect 25 0 24 0;
#X connect 27 0 32 0;
#X connect 28 0 32 0;
#X connect 29 0 32 0;
#X connect 30 0 32 0;
#X connect 31 0 32 0;
#X connect 32 0 35 0;
#X connect 33 0 29 0;
#X connect 35 0 43 0;
#X connect 36 0 32 0;
#X connect 38 0 39 1;
#X connect 39 1 37 0;
#X connect 39 1 37 1;
#X connect 41 0 16 0;
#X connect 42 0 41 1;
#X connect 44 0 41 0;
#X connect 45 0 46 1;
#X connect 46 0 41 0;
#X connect 47 0 46 0;
