#N canvas 643 152 526 448 10;
#X obj -2 16 adc~;
#X obj -13 130 fiddle~;
#X obj 328 11 pddp/dsp;
#X floatatom -13 155 5 0 0 0 - - -;
#X obj 175 53 s drone-pitch;
#X obj -37 245 pitchshift~;
#X floatatom 27 212 5 0 0 0 - - -;
#X obj -3 39 delwrite~ drone 1000;
#X obj 175 12 init 67;
#X floatatom 175 33 5 0 0 0 - - -;
#X msg 171 100 250;
#X msg 202 100 500;
#X msg 235 100 1000;
#X msg 272 100 1500;
#X msg 308 100 2000;
#X floatatom 171 130 5 0 0 0 - - -;
#X obj 235 78 loadbang;
#X obj 171 152 s drone-delay;
#X obj -27 87 delread~ drone;
#X obj -27 65 r drone-delay;
#X obj 23 173 r drone-pitch;
#X floatatom -13 215 5 0 0 0 - - -;
#X obj -13 174 * -1;
#X obj -13 194 +;
#X obj -34 290 output~;
#X obj 27 192 init 250;
#X connect 0 0 7 0;
#X connect 1 0 3 0;
#X connect 3 0 22 0;
#X connect 5 0 24 0;
#X connect 5 0 24 1;
#X connect 6 0 5 2;
#X connect 8 0 9 0;
#X connect 9 0 4 0;
#X connect 10 0 15 0;
#X connect 11 0 15 0;
#X connect 12 0 15 0;
#X connect 13 0 15 0;
#X connect 14 0 15 0;
#X connect 15 0 17 0;
#X connect 16 0 12 0;
#X connect 18 0 1 0;
#X connect 18 0 5 0;
#X connect 19 0 18 0;
#X connect 20 0 23 1;
#X connect 21 0 5 1;
#X connect 22 0 23 0;
#X connect 23 0 21 0;
#X connect 25 0 6 0;
