#N canvas 643 152 526 448 10;
#X obj -103 23 adc~;
#X obj -91 141 fiddle~;
#X obj 328 11 pddp/dsp;
#X floatatom -91 163 5 0 0 0 - - -;
#X obj 174 79 s drone-pitch;
#X obj -113 270 pitchshift~;
#X floatatom -47 213 5 0 0 0 - - -;
#X obj 174 38 init 67;
#X floatatom 174 59 3 0 0 0 - - -;
#X msg 170 126 250;
#X msg 201 126 500;
#X msg 234 126 1000;
#X msg 271 126 1500;
#X msg 307 126 2000;
#X floatatom 170 156 5 0 5000 0 - - -;
#X obj 234 104 loadbang;
#X obj -103 112 delread~ drone;
#X obj -103 90 r drone-delay;
#X obj -51 174 r drone-pitch;
#X floatatom -91 226 5 0 0 0 - - -;
#X obj -91 185 * -1;
#X obj -91 205 +;
#X obj -110 315 output~;
#X obj -47 193 init 250;
#X obj 112 15 notein;
#X obj 112 38 stripnote;
#X obj -104 46 delwrite~ drone 5000;
#X obj 198 58 comment 0 10 helvetica ? 0 0 0 0 MIDI note number for
drone;
#X obj 207 156 comment 0 10 helvetica ? 0 0 0 0 delay for drone (ms)
;
#X obj 170 200 s drone-delay;
#X obj 170 178 min 5000;
#X obj -9 213 comment 0 10 helvetica ? 0 0 0 0 window size for pitch
shift (ms);
#X msg 171 287 250;
#X msg 202 287 500;
#X msg 235 287 1000;
#X msg 272 287 1500;
#X msg 308 287 2000;
#X floatatom 171 317 5 0 5000 0 - - -;
#X obj 139 265 loadbang;
#X obj 208 317 comment 0 10 helvetica ? 0 0 0 0 delay for pitch shift
(ms);
#X obj 171 339 min 5000;
#X msg 139 287 0;
#X obj 171 361 s pitchshift-delay;
#X obj -40 234 r pitchshift-delay;
#X obj -91 249 pipe;
#X connect 0 0 26 0;
#X connect 1 0 3 0;
#X connect 3 0 20 0;
#X connect 5 0 22 0;
#X connect 5 0 22 1;
#X connect 6 0 5 2;
#X connect 7 0 8 0;
#X connect 8 0 4 0;
#X connect 9 0 14 0;
#X connect 10 0 14 0;
#X connect 11 0 14 0;
#X connect 12 0 14 0;
#X connect 13 0 14 0;
#X connect 14 0 30 0;
#X connect 15 0 11 0;
#X connect 16 0 1 0;
#X connect 16 0 5 0;
#X connect 17 0 16 0;
#X connect 18 0 21 1;
#X connect 19 0 44 0;
#X connect 20 0 21 0;
#X connect 21 0 19 0;
#X connect 23 0 6 0;
#X connect 24 0 25 0;
#X connect 25 0 8 0;
#X connect 30 0 29 0;
#X connect 32 0 37 0;
#X connect 33 0 37 0;
#X connect 34 0 37 0;
#X connect 35 0 37 0;
#X connect 36 0 37 0;
#X connect 37 0 40 0;
#X connect 38 0 41 0;
#X connect 40 0 42 0;
#X connect 43 0 44 1;
#X connect 44 0 5 1;
