#N canvas 643 152 450 300 10;
#X obj 27 21 adc~;
#X obj 27 56 fiddle~;
#X obj 328 11 pddp/dsp;
#X floatatom 20 87 5 0 0 0 - - -;
#X obj 226 51 s drone-pitch;
#X obj 28 189 pitchshift~;
#X floatatom 53 157 5 0 0 0 - - -;
#X floatatom 92 156 5 0 0 0 - - -;
#X obj 69 38 delwrite~ drone 1000;
#X obj 226 10 init 67;
#X floatatom 226 31 5 0 0 0 - - -;
#X msg 222 98 250;
#X msg 253 98 500;
#X msg 286 98 1000;
#X msg 323 98 1500;
#X msg 359 98 2000;
#X floatatom 222 128 5 0 0 0 - - -;
#X obj 286 76 loadbang;
#X connect 0 0 1 0;
#X connect 0 0 8 0;
#X connect 1 0 3 0;
#X connect 6 0 5 1;
#X connect 7 0 5 2;
#X connect 9 0 10 0;
#X connect 10 0 4 0;
#X connect 11 0 16 0;
#X connect 12 0 16 0;
#X connect 13 0 16 0;
#X connect 14 0 16 0;
#X connect 15 0 16 0;
#X connect 17 0 13 0;
