#N canvas 643 152 450 300 10;
#X obj 27 21 adc~;
#X obj 27 56 fiddle~;
#X obj 328 11 pddp/dsp;
#X floatatom 20 87 5 0 0 0 - - -;
#X obj 226 51 s drone-pitch;
#X obj 129 111 pitchshift~;
#X floatatom 154 79 5 0 0 0 - - -;
#X floatatom 193 78 5 0 0 0 - - -;
#X obj 69 38 delwrite~ drone 1000;
#X obj 226 10 init 67;
#X floatatom 226 31 5 0 0 0 - - -;
#X connect 0 0 1 0;
#X connect 0 0 8 0;
#X connect 1 0 3 0;
#X connect 6 0 5 1;
#X connect 7 0 5 2;
#X connect 9 0 10 0;
#X connect 10 0 4 0;
