#N canvas 1084 75 549 584 10;
#X floatatom 187 104 0 0 0 0 - - -;
#X obj 250 375 *~;
#X obj 373 312 line~;
#X floatatom 405 129 0 0 0 0 - - -;
#X obj 373 286 pack 0 200;
#X obj 187 160 exp;
#X floatatom 187 186 6 0 0 0 - - -;
#X obj 187 276 /;
#X obj 314 206 * 0.001;
#X obj 482 382 line~;
#X obj 482 357 pack 0 200;
#X floatatom 482 306 0 0 0 0 - - -;
#X obj 482 280 r delay;
#X obj 250 401 +~;
#X obj 187 427 cos~;
#X obj 187 454 *~;
#X obj 187 483 +~;
#X obj 274 334 wrap~;
#X obj 419 377 *~;
#X obj 419 410 +~;
#X obj 356 437 cos~;
#X obj 356 464 *~;
#X obj 314 233 t b f;
#X floatatom 187 302 6 0 0 0 - - -;
#X obj 274 307 +~ 0.5;
#X obj 187 375 -~ 0.5;
#X obj 187 401 *~ 0.5;
#X obj 356 376 -~ 0.5;
#X obj 356 409 *~ 0.5;
#X obj 187 213 - 1;
#X obj 187 134 * 0.05776;
#X obj 187 239 * -1;
#X text 221 103 <-- transposition;
#X text 264 116 (halftones);
#X text 250 180 speed;
#X text 249 194 change;
#X text 449 128 <--window (msec);
#X text 222 269 tape head;
#X obj 187 510 output~;
#X obj 187 333 phasor~;
#X obj 482 333 max 1.5;
#X text 485 239 delay;
#X text 482 257 (msec);
#X obj 405 156 max 1;
#X text 223 282 rotation freq;
#X obj 250 427 vd~ G09-del;
#X obj 419 439 vd~ G09-del;
#X obj 28 110 delwrite~ G09-del 5000;
#X obj 28 17 comment 0 10 helvetica ? 0 0 0 0 cribbed from G09;
#X obj 187 78 inlet;
#X obj 405 103 inlet;
#X obj 28 79 inlet~;
#X connect 0 0 30 0;
#X connect 1 0 13 0;
#X connect 2 0 1 1;
#X connect 2 0 18 1;
#X connect 3 0 43 0;
#X connect 4 0 2 0;
#X connect 5 0 6 0;
#X connect 6 0 29 0;
#X connect 7 0 23 0;
#X connect 8 0 22 0;
#X connect 9 0 13 1;
#X connect 9 0 19 1;
#X connect 10 0 9 0;
#X connect 11 0 40 0;
#X connect 12 0 11 0;
#X connect 13 0 45 0;
#X connect 14 0 15 0;
#X connect 15 0 16 0;
#X connect 16 0 38 0;
#X connect 16 0 38 1;
#X connect 17 0 18 0;
#X connect 17 0 27 0;
#X connect 18 0 19 0;
#X connect 19 0 46 0;
#X connect 20 0 21 0;
#X connect 21 0 16 1;
#X connect 22 0 7 0;
#X connect 22 1 7 1;
#X connect 23 0 39 0;
#X connect 24 0 17 0;
#X connect 25 0 26 0;
#X connect 26 0 14 0;
#X connect 27 0 28 0;
#X connect 28 0 20 0;
#X connect 29 0 31 0;
#X connect 30 0 5 0;
#X connect 31 0 7 0;
#X connect 39 0 1 0;
#X connect 39 0 25 0;
#X connect 39 0 24 0;
#X connect 40 0 10 0;
#X connect 43 0 8 0;
#X connect 43 0 4 0;
#X connect 45 0 15 1;
#X connect 46 0 21 1;
#X connect 49 0 0 0;
#X connect 50 0 3 0;
#X connect 51 0 47 0;
